<?xml version="1.0" encoding="UTF-8"?>
<svg width="40pt" height="40pt" version="1.1" viewBox="0 0 100 100" xmlns="http://www.w3.org/2000/svg">
 <g>
  <path d="m58.898 57c-2.6992 0-5 1.3008-6.5 3.3008l-10-5.6992c0.39844-1 0.69922-2.1016 0.69922-3.1992 0-1.6016-0.39844-3-1.1992-4.3008l10.898-5.5c1.5 1.6992 3.6992 2.8008 6.1016 2.8008 4.5 0 8.1016-3.6992 8.1016-8.1016 0-4.3984-3.6992-8.1016-8.1016-8.1016-4.3984 0-8.1016 3.6992-8.1016 8.1016 0 0.69922 0.10156 1.3008 0.30078 2l-12 6.1016c-1.1992-0.69922-2.6016-1.1016-4-1.1016-4.5 0-8.1016 3.6992-8.1016 8.1016 0 4.3984 3.6992 8.1016 8.1016 8.1016 1.8984 0 3.6992-0.69922 5.1016-1.8008l10.801 6.1016c-0.10156 0.39844-0.10156 0.89844-0.10156 1.3008 0 4.5 3.6992 8.1016 8.1016 8.1016 4.3984 0 8.1016-3.6992 8.1016-8.1016 0-4.4062-3.7031-8.1055-8.2031-8.1055zm0-25.102c2.3984 0 4.3008 1.8984 4.3008 4.3008 0 2.3984-1.8984 4.3008-4.3008 4.3008-2.3984 0-4.3008-1.8984-4.3008-4.3008 0.003906-2.3984 1.9023-4.3008 4.3008-4.3008zm-24 23.801c-2.3984 0-4.3008-1.8984-4.3008-4.3008 0-2.3984 1.8984-4.3008 4.3008-4.3008 2.3984 0 4.3008 1.8984 4.3008 4.3008 0 2.4023-1.8984 4.3008-4.3008 4.3008zm24 13.699c-2.3984 0-4.3008-1.8984-4.3008-4.3008 0-2.3984 1.8984-4.3008 4.3008-4.3008 2.3984 0 4.3008 1.8984 4.3008 4.3008s-1.8984 4.3008-4.3008 4.3008z"/>
  <path d="m50.301 0.80078c-27.199 0-49.301 22.199-49.301 49.301 0 8.6992 2.3008 17.199 6.6016 24.699l0.19922 0.30078-4.4023 15.098c-0.60156 1.8984 0 4 1.3984 5.5 1.3984 1.3984 3.5 2 5.5 1.3984l15.301-4.3984 0.30078 0.19922c7.3984 4.3008 15.898 6.5 24.5 6.5 27.199 0 49.301-22.102 49.301-49.301 0-27.199-22.301-49.297-49.398-49.297zm0 94.801c-8.3008 0-16.5-2.3008-23.5-6.6016l-0.80078-0.39844-16.801 4.7969c-0.60156 0.19922-1.3008 0-1.6992-0.39844-0.5-0.39844-0.69922-1.1016-0.5-1.6992l4.8984-16.699-0.39844-0.69922c-4.3984-7.1016-6.6992-15.301-6.6992-23.699 0-25.102 20.398-45.5 45.5-45.5 25.102 0 45.5 20.398 45.5 45.5-0.10156 24.996-20.5 45.398-45.5 45.398z"/>
 </g>
</svg>
