<?xml version="1.0" encoding="UTF-8"?>
<svg width="40pt" height="40pt" version="1.1" viewBox="0 0 100 100" xmlns="http://www.w3.org/2000/svg">
 <path d="m82.18 38.383c0-17.359-14.125-31.484-31.484-31.484-17.359 0-31.484 14.125-31.484 31.484 0 4.2969 0.89453 8.5391 2.5781 12.457-1.6328 3.8047-2.543 7.9922-2.543 12.387 0 17.363 14.125 31.484 31.484 31.484 17.363 0 31.488-14.121 31.488-31.484 0-4.2969-0.89453-8.5391-2.582-12.457 1.6367-3.8047 2.543-7.9922 2.543-12.387zm-31.484 18.203c-3.6602 0-6.6406 2.9805-6.6406 6.6406 0 3.6641 2.9805 6.6406 6.6406 6.6406 6.7852 0 13.074-2.168 18.223-5.832-0.42578 9.6641-8.418 17.395-18.184 17.395-10.035 0-18.203-8.168-18.203-18.207 0-10.035 8.168-18.203 18.203-18.203 3.6602 0 6.6406-2.9805 6.6406-6.6406s-2.9805-6.6406-6.6406-6.6406c-6.7852 0-13.074 2.1641-18.223 5.832 0.42578-9.6641 8.418-17.395 18.184-17.395 10.039 0 18.203 8.168 18.203 18.203 0 10.043-8.1641 18.207-18.203 18.207zm26.609-10c-0.21484 0.69922-0.46484 1.3867-0.73438 2.0625-0.28516 0.71875-0.60156 1.4258-0.94531 2.1172-1.082 2.1719-2.4414 4.1836-4.0312 5.9883-0.46875 0.53125-0.94922 1.043-1.4531 1.5352-0.5 0.48828-1.0156 0.95313-1.5508 1.4023-4.8438 4.0742-11.086 6.5352-17.895 6.5352-1.6523 0-2.9961-1.3438-2.9961-2.9961 0-1.6523 1.3438-2.9961 2.9961-2.9961 6.1016 0 11.621-2.5156 15.59-6.5625 0.48828-0.49609 0.95312-1.0195 1.3945-1.5625 1.3867-1.7109 2.5156-3.6406 3.3398-5.7188 0.25391-0.64453 0.48047-1.3047 0.67188-1.9766 0.55078-1.918 0.85547-3.9375 0.85547-6.0273 0-12.047-9.8008-21.848-21.848-21.848s-21.848 9.8008-21.848 21.848c0 0.71484 0.046876 1.4258 0.11328 2.1328-1.8633 1.7852-3.5078 3.7969-4.8867 5.9883-0.79688-2.6211-1.2227-5.3594-1.2227-8.1211 0-15.352 12.488-27.844 27.844-27.844 15.352 0 27.844 12.488 27.844 27.844-0.007813 2.8516-0.4375 5.6016-1.2383 8.1992z"/>
</svg>
